<svg xmlns="http://www.w3.org/2000/svg" viewBox="0 0 155.33 146.58"><defs><style>.cls-1{fill:#d5de22;}.cls-2{fill:#a4b238;}.cls-3{fill:#01acee;}.cls-4{fill:#3e89cb;}.cls-5{fill:#00acee;}.cls-6{fill:#4288c8;}</style></defs><title>Recurso 1</title><g id="Capa_2" data-name="Capa 2"><g id="Capa_1-2" data-name="Capa 1"><polygon class="cls-1" points="15.25 131.08 41.25 103.83 64.5 109.58 74.5 146.58 15.25 131.08"/><polygon class="cls-2" points="0 73.83 35 82.83 41.25 103.83 15.25 131.08 0 73.83"/><polygon class="cls-1" points="40.75 31.58 0 73.83 35 82.83 51.75 65.58 40.75 31.58"/><polygon class="cls-2" points="100 46.58 40.75 31.58 51.75 65.58 76 72.08 100 46.58"/><polygon class="cls-3" points="56.33 100.33 81 75 104.67 80.33 113.67 114.33 56.33 100.33"/><polygon class="cls-4" points="121.33 62.33 104.67 80.33 113.67 114.33 155.33 73.67 121.33 62.33"/><polygon class="cls-5" points="141 16.33 155.33 73.67 121.33 62.33 115.67 40.67 141 16.33"/><polygon class="cls-6" points="83.33 0 141 16.33 115.67 40.67 91 33.67 83.33 0"/></g></g></svg>